<?xml version="1.0" encoding="UTF-8" standalone="no"?>
<svg
   xmlns:dc="http://purl.org/dc/elements/1.1/"
   xmlns:cc="http://creativecommons.org/ns#"
   xmlns:rdf="http://www.w3.org/1999/02/22-rdf-syntax-ns#"
   xmlns:svg="http://www.w3.org/2000/svg"
   xmlns="http://www.w3.org/2000/svg"
   xmlns:sodipodi="http://sodipodi.sourceforge.net/DTD/sodipodi-0.dtd"
   xmlns:inkscape="http://www.inkscape.org/namespaces/inkscape"
   version="1.1"
   id="Layer_1"
   x="0px"
   y="0px"
   width="1000px"
   height="1000px"
   viewBox="0 0 1000 1000"
   style="enable-background:new 0 0 1000 1000;"
   xml:space="preserve"
   sodipodi:docname="boy.svg"
   inkscape:version="1.0.1 (0767f8302a, 2020-10-17)"><metadata
   id="metadata241"><rdf:RDF><cc:Work
       rdf:about=""><dc:format>image/svg+xml</dc:format><dc:type
         rdf:resource="http://purl.org/dc/dcmitype/StillImage" /><dc:title /></cc:Work></rdf:RDF></metadata><defs
   id="defs239">
	
	
	

		
		
	
			
			
			
		</defs><sodipodi:namedview
   pagecolor="#ffffff"
   bordercolor="#666666"
   borderopacity="1"
   objecttolerance="10"
   gridtolerance="10"
   guidetolerance="10"
   inkscape:pageopacity="0"
   inkscape:pageshadow="2"
   inkscape:window-width="1293"
   inkscape:window-height="713"
   id="namedview237"
   showgrid="false"
   inkscape:zoom="0.566"
   inkscape:cx="239.28406"
   inkscape:cy="422.14474"
   inkscape:window-x="67"
   inkscape:window-y="27"
   inkscape:window-maximized="1"
   inkscape:current-layer="illustration"
   inkscape:document-rotation="0" />
<g
   id="illustration">
	
	
	
	
	
	
	
	
	
	
	
	
	
	
	
	
	
	
	
	
	
	
	
	
	
	
	
	
	
	
	
<path
   style="fill:#f38181;stroke-width:0.925994"
   d="m 578.25743,357.39991 c -17.4434,-30.94095 -12.19078,-62.83279 10.21965,-81.90741 h -44.78726 c 0.0683,0.63317 0.11543,1.27016 0.11543,1.91405 0,15.43334 -19.94762,27.94507 -44.55318,27.94507 -24.60555,0 -44.55318,-12.51173 -44.55318,-27.94507 0,-0.64389 0.0472,-1.28088 0.11544,-1.91405 h -46.00802 c 22.41044,19.07462 27.66305,50.96646 10.21965,81.90741 -5.59644,9.92777 -13.02514,18.85259 -21.69701,26.52792 v 96.75045 h 202.62342 v -96.75045 c -8.66962,-7.67609 -16.09721,-16.60091 -21.69478,-26.52792 z"
   id="path518" /><path
   style="fill:#fce38a;stroke-width:0.925994"
   d="m 563.03268,401.05395 c 0,-5.625 -8.82306,-10.41701 -21.17735,-12.23688 6.85417,-7.25883 8.13652,-14.91196 2.3172,-18.88934 -5.81932,-3.97739 -17.01334,-3.10076 -27.6317,1.58406 -2.66214,-8.44554 -9.67086,-14.47708 -17.90033,-14.47708 -8.22948,0 -15.23819,6.03154 -17.90035,14.47708 -10.61836,-4.68559 -21.81348,-5.56222 -27.63168,-1.58406 -5.81934,3.97738 -4.53696,11.63051 2.31719,18.88934 -12.3543,1.81987 -21.17734,6.61111 -21.17734,12.23688 0,5.62577 8.82304,10.41701 21.17734,12.23688 -6.85415,7.25883 -8.13653,14.91196 -2.31719,18.88934 5.8182,3.97816 17.01332,3.10153 27.63168,-1.58406 2.66216,8.44554 9.67087,14.47708 17.90035,14.47708 8.22835,0 15.23819,-6.03154 17.90033,-14.47708 10.61836,4.68559 21.8135,5.56222 27.6317,1.58406 5.81819,-3.97738 4.53584,-11.63051 -2.3172,-18.88934 12.35542,-1.81987 21.17735,-6.61111 21.17735,-12.23688 z"
   id="path520" /><ellipse
   style="fill:#eaffd0;stroke-width:0.925994"
   cx="498.6416"
   cy="401.05396"
   id="circle522"
   rx="19.40893"
   ry="13.26817" /><path
   style="fill:#414042;stroke-width:0.925994"
   d="m 606.60254,380.41823 c -8.43106,-7.46401 -15.33115,-15.90343 -20.50762,-25.08396 -15.88665,-28.17859 -12.38116,-58.10739 8.9317,-76.24643 2.02376,-1.72264 2.42247,-4.08534 1.02477,-6.07748 -1.39772,-1.99214 -4.34209,-3.26 -7.57431,-3.26 h -44.78726 c -2.33512,0 -4.56496,0.66456 -6.15418,1.83442 -1.58923,1.16987 -2.39447,2.73862 -2.22201,4.33034 0.0628,0.5857 0.0919,1.05962 0.0919,1.49143 0,12.243 -16.21815,22.20294 -36.15347,22.20294 -19.93531,0 -36.15347,-9.95994 -36.15347,-22.20294 0,-0.43181 0.0291,-0.9065 0.0929,-1.49143 0.17249,-1.59172 -0.63277,-3.16047 -2.22201,-4.33034 -1.59033,-1.16986 -3.82017,-1.83442 -6.1553,-1.83442 h -46.00802 c -3.2322,0 -6.17657,1.26786 -7.57429,3.26 -1.39659,1.99214 -0.99901,4.35561 1.02478,6.07748 21.31174,18.13904 24.81721,48.06784 8.93167,76.24643 -5.17645,9.18053 -12.07653,17.61995 -20.5076,25.08396 -1.13565,1.00526 -1.75163,2.23944 -1.75163,3.5096 v 96.75045 c 0,3.1712 3.76083,5.74214 8.39971,5.74214 h 202.62343 c 4.63887,0 8.39971,-2.57094 8.39971,-5.74214 v -96.75045 c 0.004,-1.2694 -0.61485,-2.50434 -1.74939,-3.5096 z m -15.04781,94.51791 H 405.72849 v -89.07972 c 8.63043,-7.94559 15.73545,-16.81452 21.1348,-26.39164 15.5585,-27.59595 14.29295,-57.02021 -2.47512,-78.23014 h 22.25138 c 2.99591,16.78083 25.44891,29.85912 52.61357,29.85912 27.16466,0 49.61765,-13.07829 52.61355,-29.85912 h 21.03063 c -16.76806,21.20993 -18.03362,50.63419 -2.47623,78.23014 5.39933,9.57712 12.50325,18.44605 21.13479,26.39164 z"
   id="path524" /><path
   style="fill:#414042;stroke-width:0.925994"
   d="m 553.77171,385.44299 c 4.28498,-7.69294 3.09894,-14.95636 -3.65891,-19.57611 -6.75785,-4.61897 -17.38068,-5.43053 -28.63628,-2.50051 -4.92672,-7.51148 -13.27828,-12.0738 -22.83602,-12.0738 -9.55776,0 -17.90819,4.56155 -22.83601,12.0738 -11.25225,-2.92849 -21.87845,-2.11846 -28.6363,2.50128 -6.75673,4.61974 -7.94277,11.88317 -3.6578,19.5761 -10.98905,3.36872 -17.66179,9.07718 -17.66179,15.61097 0,6.53378 6.67385,12.24224 17.66179,15.61096 -4.28609,7.6937 -3.10006,14.95636 3.65891,19.5761 6.75898,4.61974 17.3818,5.4313 28.63629,2.50051 4.92672,7.51149 13.27828,12.07381 22.83603,12.07381 9.55775,0 17.90818,-4.56156 22.83601,-12.07381 11.25449,2.92926 21.87845,2.11847 28.63629,-2.50127 6.75897,-4.61975 7.9439,-11.88241 3.65892,-19.57611 10.98906,-3.36872 17.66179,-9.07717 17.66179,-15.61096 -0.004,-6.53379 -6.67386,-12.24224 -17.66292,-15.61096 z m -13.68367,22.23433 c -2.69688,0.39735 -4.93569,1.67364 -5.9918,3.41542 -1.05502,1.74178 -0.79293,3.72703 0.70333,5.31186 5.05102,5.35015 5.71404,10.15823 3.43492,11.71473 -2.27799,1.55804 -9.31247,1.10479 -17.13765,-2.34815 -2.31831,-1.02363 -5.22238,-1.20279 -7.77029,-0.48081 -2.54791,0.72122 -4.41602,2.25245 -4.99616,4.09606 -1.96216,6.22448 -6.46665,9.94462 -9.68877,9.94462 -3.22214,0 -7.72663,-3.71937 -9.68879,-9.94462 -0.58014,-1.84361 -2.44824,-3.37408 -4.99614,-4.09606 -1.03374,-0.29246 -2.1257,-0.43717 -3.2143,-0.43717 -1.59369,0 -3.17845,0.31008 -4.556,0.91798 -7.82629,3.45294 -14.85853,3.90542 -17.13765,2.34815 -2.27801,-1.55727 -1.6161,-6.36535 3.43491,-11.71549 1.49515,-1.58407 1.75835,-3.56932 0.70334,-5.31186 -1.05499,-1.74179 -3.29492,-3.01884 -5.99179,-3.41543 -9.10528,-1.34136 -14.54717,-4.42068 -14.54717,-6.62337 0,-2.20268 5.44077,-5.282 14.54717,-6.62336 2.69687,-0.39659 4.93567,-1.67364 5.99179,-3.41543 1.05501,-1.74178 0.79181,-3.72703 -0.70334,-5.31186 -5.05101,-5.35014 -5.71292,-10.15823 -3.43491,-11.71473 2.27801,-1.55803 9.31025,-1.10479 17.13765,2.34815 2.3172,1.02287 5.22014,1.20202 7.7703,0.48081 2.5479,-0.72121 4.416,-2.25245 4.99614,-4.09606 1.96216,-6.22448 6.46665,-9.94462 9.68879,-9.94462 3.22212,0 7.72661,3.71938 9.68877,9.94462 0.58014,1.84361 2.44825,3.37408 4.99616,4.09606 2.5468,0.72121 5.45198,0.54206 7.77029,-0.48081 7.82629,-3.45294 14.85966,-3.90542 17.13653,-2.34815 2.278,1.55727 1.61611,6.36535 -3.43492,11.7155 -1.49514,1.58406 -1.75834,3.56931 -0.70334,5.31186 1.05501,1.74178 3.29493,3.01883 5.99179,3.41542 9.1053,1.34137 14.54719,4.42069 14.54719,6.62337 0,2.20268 -5.44189,5.282 -14.54605,6.62337 z"
   id="path526" /><path
   style="fill:#414042;stroke-width:0.925994"
   d="m 498.64162,382.04364 c -15.33341,0 -27.80864,8.52823 -27.80864,19.01031 0,10.48208 12.47523,19.01031 27.80864,19.01031 15.33339,0 27.80864,-8.52823 27.80864,-19.01031 0,-10.48208 -12.47637,-19.01031 -27.80864,-19.01031 z m 0,26.53634 c -6.07021,0 -11.00922,-3.37638 -11.00922,-7.52603 0,-4.14965 4.93901,-7.52603 11.00922,-7.52603 6.07019,0 11.00922,3.37638 11.00922,7.52603 0,4.14965 -4.93903,7.52603 -11.00922,7.52603 z"
   id="path528" /><g
   id="g536"
   transform="matrix(1.1199614,0,0,0.7656186,340.16595,269.75036)">
</g><g
   id="g538"
   transform="matrix(1.1199614,0,0,0.7656186,340.16595,269.75036)">
</g><g
   id="g540"
   transform="matrix(1.1199614,0,0,0.7656186,340.16595,269.75036)">
</g><g
   id="g542"
   transform="matrix(1.1199614,0,0,0.7656186,340.16595,269.75036)">
</g><g
   id="g544"
   transform="matrix(1.1199614,0,0,0.7656186,340.16595,269.75036)">
</g><g
   id="g546"
   transform="matrix(1.1199614,0,0,0.7656186,340.16595,269.75036)">
</g><g
   id="g548"
   transform="matrix(1.1199614,0,0,0.7656186,340.16595,269.75036)">
</g><g
   id="g550"
   transform="matrix(1.1199614,0,0,0.7656186,340.16595,269.75036)">
</g><g
   id="g552"
   transform="matrix(1.1199614,0,0,0.7656186,340.16595,269.75036)">
</g><g
   id="g554"
   transform="matrix(1.1199614,0,0,0.7656186,340.16595,269.75036)">
</g><g
   id="g556"
   transform="matrix(1.1199614,0,0,0.7656186,340.16595,269.75036)">
</g><g
   id="g558"
   transform="matrix(1.1199614,0,0,0.7656186,340.16595,269.75036)">
</g><g
   id="g560"
   transform="matrix(1.1199614,0,0,0.7656186,340.16595,269.75036)">
</g><g
   id="g562"
   transform="matrix(1.1199614,0,0,0.7656186,340.16595,269.75036)">
</g><g
   id="g564"
   transform="matrix(1.1199614,0,0,0.7656186,340.16595,269.75036)">
</g></g>
<g
   id="skeleton_1_">
	<circle
   id="rightShoulder"
   cx="392.8"
   cy="294.3"
   r="8.2" />
	<circle
   id="rightElbow"
   cx="289.3"
   cy="294.4"
   r="8.2" />
	
		<ellipse
   id="rightWrist"
   transform="matrix(0.9951 -9.853767e-02 9.853767e-02 0.9951 -29.0274 13.8698)"
   cx="125.9"
   cy="300.8"
   rx="8.2"
   ry="8.2" />
	<circle
   id="rightHip"
   cx="443.1"
   cy="510.1"
   r="8.2" />
	<circle
   id="rightKnee"
   cx="449.5"
   cy="670.3"
   r="8.2" />
	<circle
   id="rightAnkle"
   cx="449.5"
   cy="878.3"
   r="8.2" />
	<circle
   id="leftShoulder"
   cx="605.7"
   cy="294.3"
   r="8.2" />
	<circle
   id="leftElbow"
   cx="710.1"
   cy="294"
   r="8.2" />
	<circle
   id="leftWrist"
   cx="873.5"
   cy="300.3"
   r="8.2" />
	<circle
   id="leftHip"
   cx="559.5"
   cy="509.3"
   r="8.2" />
	<circle
   id="leftKnee"
   cx="559.5"
   cy="670.3"
   r="8.2" />
	<circle
   id="leftAnkle"
   cx="559.5"
   cy="878.3"
   r="8.2" />
	<polygon
   style="fill:none;stroke:#000000;stroke-miterlimit:10;"
   points="392.7,294.6 443,510.4 559.4,509.6 605.6,294.6  "
   id="polygon132" />
	<polyline
   style="fill:none;stroke:#000000;stroke-miterlimit:10;"
   points="391.7,294.6 289,294.6 125.7,300.9  "
   id="polyline134" />
	<polyline
   style="fill:none;stroke:#000000;stroke-miterlimit:10;"
   points="607.1,294.2 710.3,294.2 873.6,300.6  "
   id="polyline136" />
	<polyline
   style="fill:none;stroke:#000000;stroke-miterlimit:10;"
   points="443,510.4 449.4,670.6 449.4,878.6  "
   id="polyline138" />
	<polyline
   style="fill:none;stroke:#000000;stroke-miterlimit:10;"
   points="559.4,509.6 559.4,670.6 559.4,878.6  "
   id="polyline140" />
	<circle
   id="rightEye0"
   cx="468.6"
   cy="160.2"
   r="0.8" />
	<circle
   id="rightBrow1"
   cx="466.4"
   cy="148.3"
   r="0.8" />
	<circle
   id="rightBrow4"
   cx="489.7"
   cy="151.3"
   r="0.8" />
	<circle
   id="nose1"
   cx="497.6"
   cy="161.2"
   r="0.8" />
	<circle
   id="rightBrow3"
   cx="479.9"
   cy="147.3"
   r="0.8" />
	<circle
   id="rightEye1"
   cx="473.8"
   cy="156.5"
   r="0.8" />
	<circle
   id="rightBrow0"
   cx="462.4"
   cy="152"
   r="0.8" />
	<circle
   id="rightBrow2"
   cx="472.6"
   cy="147.3"
   r="0.8" />
	<circle
   id="rightEye5"
   cx="473.8"
   cy="162.5"
   r="0.8" />
	<circle
   id="rightEye2"
   cx="480.1"
   cy="156.5"
   r="0.8" />
	<circle
   id="rightEye3"
   cx="485.3"
   cy="160.7"
   r="0.8" />
	<circle
   id="nose0"
   cx="497.6"
   cy="155.4"
   r="0.8" />
	<circle
   id="nose3"
   cx="497.6"
   cy="173.8"
   r="0.8" />
	<circle
   id="rightNose0"
   cx="486.9"
   cy="178.3"
   r="0.8" />
	<circle
   id="rightMouthCorner"
   cx="480.9"
   cy="200.4"
   r="0.8" />
	<circle
   id="rightNose1"
   cx="492.1"
   cy="178.3"
   r="0.8" />
	<circle
   id="rightUpperLipTop0"
   cx="487.8"
   cy="197"
   r="0.8" />
	<circle
   id="nose2"
   cx="497.6"
   cy="166.7"
   r="0.8" />
	<circle
   id="nose4"
   cx="497.6"
   cy="179.1"
   r="0.8" />
	<circle
   id="upperLipTopMid"
   cx="498.4"
   cy="196.8"
   r="0.8" />
	<circle
   id="rightUpperLipTop1"
   cx="494.3"
   cy="195.9"
   r="0.8" />
	<path
   id="rightMiddleLip"
   d="M484.5,199.9c0.4,0,0.8,0.4,0.8,0.8c0,0.4-0.4,0.8-0.8,0.8s-0.8-0.4-0.8-0.8S484.1,199.9,484.5,199.9z   " />
	<circle
   id="lowerLipBottomMid"
   cx="498.4"
   cy="210"
   r="0.8" />
	<circle
   id="upperLipBottomMid"
   cx="498.4"
   cy="200.4"
   r="0.8" />
	<circle
   id="lowerLipTopMid"
   cx="498.4"
   cy="203.5"
   r="0.8" />
	<circle
   id="rightUpperLipBottom1"
   cx="494.5"
   cy="199.9"
   r="0.8" />
	<circle
   id="rightLowerLipTop0"
   cx="494.5"
   cy="202.8"
   r="0.8" />
	<circle
   id="rightLowerLipBottom1"
   cx="494.3"
   cy="209.5"
   r="0.8" />
	<circle
   id="rightLowerLipBottom0"
   cx="487.3"
   cy="206.7"
   r="0.8" />
	<circle
   id="rightEye4"
   cx="480.1"
   cy="161.7"
   r="0.8" />
	<circle
   id="jawMid"
   cx="498.4"
   cy="235.8"
   r="0.8" />
	<circle
   id="rightJaw7"
   cx="483.4"
   cy="232.6"
   r="0.8" />
	<circle
   id="rightJaw6"
   cx="473.4"
   cy="225.9"
   r="0.8" />
	<circle
   id="rightJaw5"
   cx="461.8"
   cy="213.4"
   r="0.8" />
	<circle
   id="rightJaw4"
   cx="455"
   cy="193.4"
   r="0.8" />
	<circle
   id="rightJaw3"
   cx="454.2"
   cy="171.7"
   r="0.8" />
	<circle
   id="rightJaw2"
   cx="454.2"
   cy="162.2"
   r="0.8" />
	<circle
   id="rightJaw1"
   cx="455"
   cy="150.5"
   r="0.8" />
	<circle
   id="rightJaw0"
   cx="457.5"
   cy="141.2"
   r="0.8" />
	<circle
   id="topMid"
   cx="498.6"
   cy="115.1"
   r="0.8" />
	<circle
   id="leftTop0"
   cx="518.3"
   cy="117.6"
   r="0.8" />
	<circle
   id="leftTop1"
   cx="530.9"
   cy="127.1"
   r="0.8" />
	<circle
   id="leftEye0"
   cx="528.2"
   cy="160.2"
   r="0.8" />
	<circle
   id="leftBrow1"
   cx="530.1"
   cy="148.7"
   r="0.8" />
	<circle
   id="leftBrow4"
   cx="506.5"
   cy="150.8"
   r="0.8" />
	<circle
   id="leftBrow3"
   cx="516.5"
   cy="147.6"
   r="0.8" />
	<circle
   id="leftEye1"
   cx="523"
   cy="156.5"
   r="0.8" />
	<circle
   id="leftBrow0"
   cx="534.1"
   cy="151.6"
   r="0.8" />
	<circle
   id="leftBrow2"
   cx="523.8"
   cy="147.2"
   r="0.8" />
	<circle
   id="leftEye5"
   cx="523"
   cy="162.5"
   r="0.8" />
	<circle
   id="leftEye2"
   cx="516.7"
   cy="156.5"
   r="0.8" />
	<circle
   id="leftEye3"
   cx="511.5"
   cy="160.7"
   r="0.8" />
	<circle
   id="leftNose0"
   cx="508"
   cy="178.3"
   r="0.8" />
	<circle
   id="leftMouthCorner"
   cx="515.9"
   cy="200.4"
   r="0.8" />
	<circle
   id="leftNose1"
   cx="503.2"
   cy="178.3"
   r="0.8" />
	<circle
   id="leftUpperLipTop0"
   cx="509"
   cy="197"
   r="0.8" />
	<circle
   id="leftUpperLipTop1"
   cx="502.6"
   cy="195.9"
   r="0.8" />
	<path
   id="leftMiddleLip"
   d="M512.3,199.9c0.4,0,0.8,0.4,0.8,0.8c0,0.4-0.4,0.8-0.8,0.8c-0.4,0-0.8-0.4-0.8-0.8   S511.9,199.9,512.3,199.9z" />
	<circle
   id="leftUpperLipBottom1"
   cx="502.4"
   cy="199.9"
   r="0.8" />
	<circle
   id="leftLowerLipTop0"
   cx="502.4"
   cy="202.8"
   r="0.8" />
	<circle
   id="leftLowerLipBottom1"
   cx="502.6"
   cy="209.5"
   r="0.8" />
	<circle
   id="leftLowerLipBottom0"
   cx="509.5"
   cy="206.7"
   r="0.8" />
	<circle
   id="leftEye4"
   cx="516.7"
   cy="161.7"
   r="0.8" />
	<circle
   id="leftJaw7"
   cx="513.2"
   cy="233"
   r="0.8" />
	<circle
   id="leftJaw6"
   cx="523.2"
   cy="226.3"
   r="0.8" />
	<circle
   id="leftJaw5"
   cx="534.8"
   cy="213.7"
   r="0.8" />
	<circle
   id="leftJaw4"
   cx="541.6"
   cy="193.7"
   r="0.8" />
	<circle
   id="leftJaw3"
   cx="542.4"
   cy="172.1"
   r="0.8" />
	<circle
   id="leftJaw2"
   cx="542.4"
   cy="162.5"
   r="0.8" />
	<circle
   id="leftJaw1"
   cx="541.6"
   cy="150.8"
   r="0.8" />
	<circle
   id="leftJaw0"
   cx="539.1"
   cy="141.6"
   r="0.8" />
	<polyline
   style="fill:none;stroke:#000000;stroke-miterlimit:10;"
   points="498.4,115.1 478.6,117.6 466.1,127.1 457.5,141.2    455,150.5 454.2,162.2 454.2,171.7 455,193.4 461.8,213.4 473.4,225.9 483.4,232.6 498.4,235.8 513.2,233 523.2,226.3 534.8,213.7    541.6,193.7 542.4,172.1 542.4,162.5 541.6,150.8 539.1,141.6 530.9,127.1 518.3,117.6 498.4,115.1  "
   id="polyline213" />
	<polyline
   style="fill:none;stroke:#000000;stroke-miterlimit:10;"
   points="462.4,152 466.4,148.3 472.6,147.3 479.9,147.3    489.7,151.3  "
   id="polyline215" />
	<polygon
   style="fill:none;stroke:#000000;stroke-miterlimit:10;"
   points="468.6,160.2 473.8,156.5 480.1,156.5 485.3,160.7    480.1,161.7 473.8,162.5  "
   id="polygon217" />
	<polyline
   style="fill:none;stroke:#000000;stroke-miterlimit:10;"
   points="486.9,178.3 492.1,178.3 497.6,179.1 497.6,173.8    497.6,166.7 497.6,161.2 497.6,155.4  "
   id="polyline219" />
	<polyline
   style="fill:none;stroke:#000000;stroke-miterlimit:10;"
   points="533.9,151.6 529.9,148.7 523.6,147.2 516.3,147.6    506.3,150.8  "
   id="polyline221" />
	<polygon
   style="fill:none;stroke:#000000;stroke-miterlimit:10;"
   points="528,160.2 522.7,156.5 516.4,156.5 511.3,160.7    516.4,161.7 522.7,162.5  "
   id="polygon223" />
	<polyline
   style="fill:none;stroke:#000000;stroke-miterlimit:10;"
   points="508,178.3 503,178.3 497.6,179.1  "
   id="polyline225" />
	<polygon
   style="fill:none;stroke:#000000;stroke-miterlimit:10;"
   points="480.9,200.4 487.8,197 494.3,195.9 498.4,196.8    502.6,195.9 509,197 515.9,200.4 509.5,206.7 502.4,209.5 498.4,210 494.3,209.5 487.3,206.7  "
   id="polygon227" />
	<polyline
   style="fill:none;stroke:#000000;stroke-miterlimit:10;"
   points="480.9,200.4 484.5,200.7 494.5,199.9 498.4,200.4    502.4,199.9 512.3,200.7 515.9,200.4  "
   id="polyline229" />
	<polyline
   style="fill:none;stroke:#000000;stroke-miterlimit:10;"
   points="480.9,200.4 484.5,200.7 494.5,202.8 498.4,203.6    502.4,202.8 512.3,200.7 515.9,200.4  "
   id="polyline231" />
	<circle
   id="rightTop0"
   cx="478.7"
   cy="117.6"
   r="0.8" />
	<circle
   id="rightTop1"
   cx="466.1"
   cy="127.1"
   r="0.8" />
</g>
</svg>
