<?xml version="1.0" encoding="UTF-8"?>
<svg width="52px" height="64px" viewBox="0 0 52 64" version="1.1" xmlns="http://www.w3.org/2000/svg" xmlns:xlink="http://www.w3.org/1999/xlink">
    <!-- Generator: Sketch 53.1 (72631) - https://sketchapp.com -->
    <title>noun_Shuffle_1571419</title>
    <desc>Created with Sketch.</desc>
    <g id="Page-1" stroke="none" stroke-width="1" fill="none" fillRule="evenodd">
        <g id="Artboard" transform="translate(-1313.000000, -318.000000)" fillRule="nonzero">
            <g id="Group-6" transform="translate(1097.000000, 318.000000)">
                <g id="noun_Shuffle_1571419" transform="translate(216.000000, 0.000000)">
                    <path d="M36.2330627,45.0498335 L36.232196,48.2103005 L30.4812213,44.8961384 C29.7618695,44.4511947 29.1873769,43.8074795 28.827448,43.0430962 L27.4191147,40.1587719 L26.6607813,40.8361427 L28.7639733,45.139347 C28.9730596,45.5933614 29.3066963,45.9790158 29.7262767,46.2516843 L36.232196,50.0008735 L36.232196,52.9527265 C36.2602632,53.1889751 36.3726296,53.4072415 36.5487373,53.5675935 L39.998478,51.614893 C39.9759464,51.517565 39.9382471,51.424369 39.886756,51.338707 L36.2330627,45.0498335 Z" id="Path" fill="#EDF90A"></path>
                    <path d="M8.30591667,16.864 L16.5214747,21.5971114 C17.2408226,22.0420596 17.8153141,22.6857736 18.175248,23.4501535 L19.5835813,26.3344778 L20.3419147,25.6571157 L18.2387313,21.3539027 C18.0296417,20.8998901 17.696002,20.5142386 17.2764193,20.2415741 L7.34784267,14.5219459 C7.25635759,14.461294 7.15153551,14.4236111 7.042308,14.4121081 L7.027072,14.4138378 C6.9868627,14.5844375 6.98139572,14.7613581 7.01099533,14.9341059 C7.16131355,15.7265173 7.62896366,16.4234826 8.30591667,16.864 Z" id="Path" fill="#EDF90A"></path>
                    <path d="M36.2330627,28.1452973 L36.232196,31.1638746 L28.85961,26.9155632 C28.7631589,26.847562 28.6491942,26.8085792 28.5312213,26.8032346 L17.9746667,36.2719568 C17.3081923,36.8177186 16.3582759,36.8512661 15.654808,36.3538854 L7.43925,31.6207741 C7.31751613,31.5346899 7.17204214,31.4883651 7.02284267,31.488173 C7.03046067,31.4932411 7.01691467,31.5270227 7.008456,31.5836108 C6.99634592,32.4972047 7.45076891,33.3542023 8.21450933,33.8581103 L18.1430427,39.5777038 C18.2415293,39.6417719 18.3543151,39.6806425 18.4714313,39.69088 L29.0280467,30.2212843 C29.6945233,29.6755283 30.6444356,29.641981 31.3479053,30.1393557 L36.2322133,32.9543957 L36.2322133,36.0388497 C36.2604075,36.2778599 36.3747135,36.4984903 36.5538333,36.6596324 L39.9984953,34.7010162 C39.9758171,34.6037344 39.9381267,34.5105606 39.8867733,34.4248303 L36.2330627,28.1452973 Z" id="Path" fill="#EDF90A"></path>
                    <path d="M44.6449813,35.5929081 C40.948102,23.4434162 32.438848,12.0743265 22.967308,6.62668973 C22.432306,6.31840865 21.9011173,6.03879784 21.3723553,5.77486703 C21.216832,5.69715892 21.0623747,5.62653405 20.9074927,5.55273514 C20.5239927,5.37004108 20.1424976,5.1989045 19.7630073,5.03932541 C19.600074,4.97107027 19.4373747,4.90292757 19.2752993,4.83904865 C18.8559309,4.67372108 18.4396651,4.52347099 18.026502,4.38829838 C17.926948,4.35562378 17.8261287,4.31682595 17.7269993,4.28584649 C17.2164402,4.12626739 16.711344,3.98982919 16.2117107,3.87653189 C16.0988273,3.85081946 15.9882753,3.83328865 15.8759207,3.8099373 C15.489344,3.72943568 15.105948,3.66139676 14.7268853,3.60882162 C14.5748633,3.58776216 14.423994,3.57007568 14.27335,3.55347027 C13.9169247,3.51424865 13.5646333,3.48891676 13.21593,3.47497514 C13.0858087,3.46978595 12.9543007,3.46027243 12.8253407,3.45861189 C12.4825653,3.45418378 12.1472,3.47228541 11.8127793,3.49292973 C11.6636173,3.50216649 11.511058,3.50131892 11.3635773,3.51557189 C10.8956115,3.55906808 10.4305468,3.62944351 9.97069667,3.72634811 C9.37221208,3.8578451 8.78522733,4.036907 8.21535867,4.26182054 C8.20689133,4.26520216 8.12987067,4.29391568 8.121412,4.29728 C3.1694,6.2972973 0.313794,11.8412195 0.313794,19.4949189 C0.319731769,21.3955614 0.478223285,23.2926755 0.787748,25.1680605 C3.01450933,38.9206486 12.706954,53.5565838 23.8331253,59.9712865 C30.0326693,63.542227 35.7921113,64.1207784 40.0492733,61.6081124 C40.06028,61.6016692 40.0691633,61.5945427 40.08017,61.5880995 L40.0814353,61.5869924 C40.3644367,61.4230429 40.6352007,61.2477636 40.8937273,61.0611546 C41.1503822,60.8765936 41.3968195,60.6782801 41.631954,60.4670876 C41.6586177,60.4429562 41.6868959,60.4206632 41.7165927,60.4003632 C44.842174,57.6216476 46.4942573,53.0262054 46.4942573,47.1022011 C46.4471903,43.1959925 45.8240838,39.3179805 44.6449813,35.5929081 Z M6.080854,12.9679049 C6.74133816,12.5667744 7.57596147,12.5885785 8.21450933,13.0236454 L18.1430427,18.7432476 C18.8619099,19.1881478 19.4360725,19.8315261 19.7959753,20.5954422 L22.474686,26.0743611 L19.030024,29.1503741 L16.6162273,24.2078011 C16.4077053,23.7536826 16.0742967,23.3679579 15.6547647,23.0954724 L7.43920667,18.3623697 C6.29822765,17.6508803 5.516985,16.4860613 5.29285467,15.1621968 C5.10478232,14.3400347 5.41229711,13.4837177 6.080854,12.9679049 Z M41.6861207,52.1731459 C41.5990451,52.5212171 41.3747033,52.8193975 41.0640533,52.9999568 L41.0631867,53.0008216 L37.2080453,55.1832476 C37.011798,55.2946618 36.789755,55.3528986 36.5639733,55.352173 C36.2799387,55.3478909 36.0021535,55.2683143 35.7590913,55.1216 C35.0034154,54.6530383 34.5309606,53.8399165 34.4988627,52.9526746 L34.4988627,50.9991524 L28.85961,47.7500022 C28.1402621,47.3050539 27.5657706,46.6613399 27.2058367,45.89696 L24.5279667,40.4189059 L27.9726287,37.3428843 L30.386434,42.2854573 C30.594948,42.7395783 30.9283547,43.1253043 31.347888,43.3977859 L34.4988627,45.2136649 L34.4988627,44.1258465 C34.4502234,43.4899809 34.8539235,42.9068192 35.467094,42.7271957 C36.3243373,42.5926209 37.166587,43.0437642 37.5279667,43.8310832 L41.3856473,50.4695957 C41.7059703,50.9760846 41.8138915,51.5879503 41.6861207,52.1731459 L41.6861207,52.1731459 Z M41.6861207,35.2592865 C41.5986019,35.6069171 41.3747561,35.9048637 41.0649027,36.0861492 L37.2097527,38.2778724 C36.7472024,38.5206227 36.1890202,38.4934613 35.7523313,38.2069535 C35.0014216,37.7351199 34.5323472,36.9237683 34.49888,36.0388757 L34.49888,33.9527005 L30.4812387,31.6376649 C30.3849749,31.5699199 30.2713578,31.5309552 30.1536993,31.5253362 L19.596278,40.9949319 C19.2865036,41.2746492 18.8824485,41.4275526 18.464706,41.4231438 C18.0449744,41.413328 17.6351961,41.2936206 17.2764193,41.076013 L7.347886,35.3564195 C5.96233269,34.4964657 5.17145254,32.9385379 5.296278,31.315027 C5.36433513,30.7182799 5.73069469,30.1965655 6.26954467,29.9290465 C6.93837922,29.6519938 7.70142141,29.7244672 8.30587333,30.1224562 L16.5214313,34.8555676 C16.617545,34.923605 16.7312504,34.9625999 16.8489707,34.9678962 L27.4064353,25.4983092 C28.0732817,24.9532753 29.0228708,24.9200863 29.726294,25.4172281 L34.49888,28.1672303 L34.49888,27.2119957 C34.4499784,26.5753349 34.8546014,25.9915049 35.4688013,25.8124973 C36.3297626,25.6806356 37.1731289,26.1380743 37.5305233,26.9307676 L41.3856647,33.5557708 C41.7059743,34.0622521 41.8138891,34.6741041 41.6861207,35.2592865 L41.6861207,35.2592865 Z" id="Shape" fill="#2A36F6"></path>
                    <path d="M28.1588667,4.03545946 C22.57463,0.815861622 17.3475467,0.0227891892 13.2537253,1.73393297 C13.6948587,1.75082378 14.141764,1.78883459 14.592656,1.84188541 C14.6389967,1.8473773 14.6863947,1.85692541 14.733056,1.86278919 C15.217176,1.92359784 15.7071027,2.00858811 16.2009553,2.11067676 C16.3378887,2.13891459 16.4749607,2.16942703 16.612492,2.20083892 C17.0758698,2.30678486 17.5428471,2.43017225 18.013424,2.57100108 C18.101018,2.59733622 18.187624,2.61871568 18.275582,2.64624432 C18.8265567,2.8192173 19.3819051,3.01692541 19.9416273,3.23936865 C20.0698507,3.28998919 20.1989147,3.34747676 20.3274587,3.40068324 C20.769788,3.58374631 21.2140991,3.78159279 21.660392,3.9942227 C21.8177093,4.06918054 21.974706,4.14308324 22.132448,4.22173405 C22.6971767,4.50324757 23.263604,4.79991351 23.8331947,5.1283027 C33.6652247,10.7829362 42.485924,22.5430746 46.3038333,35.0895308 C47.5322582,38.9778653 48.1804578,43.0254668 48.2275907,47.1021924 C48.2275907,47.8315589 48.1958533,48.5367957 48.148568,49.2296216 C48.1344933,49.4348108 48.1141873,49.6346638 48.0960913,49.8365146 C48.0507069,50.3416937 47.9925564,50.8362407 47.92164,51.3201557 C47.8932827,51.5129341 47.8672567,51.7072951 47.8348867,51.8966919 C47.725808,52.536 47.60119,53.1619892 47.446412,53.761453 L47.445138,53.7677405 C47.2894067,54.3702486 47.103316,54.9452627 46.9019893,55.5059632 C46.8433853,55.6691286 46.7788447,55.8263265 46.7164273,55.9858508 C46.5568913,56.3937384 46.3849764,56.7894486 46.2006827,57.1729816 C46.128108,57.3240043 46.057544,57.4766184 45.981156,57.6238357 C45.729268,58.1170751 45.4506885,58.5962806 45.1466513,59.0593297 L45.1405847,59.0694141 L45.136676,59.076013 C49.3151273,56.6858119 51.6866133,51.4687481 51.6866133,44.511827 C51.686648,29.6613189 41.1326067,11.5033773 28.1588667,4.03545946 Z" id="Path" fillOpacity="0.85" fill="#000000"></path>
                </g>
            </g>
        </g>
    </g>
</svg>