<?xml version="1.0" encoding="UTF-8"?>
<svg width="59px" height="59px" viewBox="0 0 59 59" version="1.1" xmlns="http://www.w3.org/2000/svg" xmlns:xlink="http://www.w3.org/1999/xlink">
    <!-- Generator: Sketch 53.1 (72631) - https://sketchapp.com -->
    <title>noun_Record_1675406</title>
    <desc>Created with Sketch.</desc>
    <g id="Page-1" stroke="none" stroke-width="1" fill="none" fillRule="evenodd">
        <g id="Artboard" transform="translate(-1097.000000, -323.000000)" fillRule="nonzero">
            <g id="Group-6" transform="translate(1097.000000, 318.000000)">
                <g id="noun_Record_1675406" transform="translate(0.000000, 5.000000)">
                    <path d="M29.5,59 C13.2422222,59 0,45.7577778 0,29.5 C0,13.2422222 13.2422222,0 29.5,0 C45.7577778,0 59,13.2422222 59,29.5 C59,45.7577778 45.7577778,59 29.5,59 Z M29.5,5.24444444 C16.1266667,5.24444444 5.24444444,16.1266667 5.24444444,29.5 C5.24444444,42.8733333 16.1266667,53.7555556 29.5,53.7555556 C42.8733333,53.7555556 53.7555556,42.8733333 53.7555556,29.5 C53.7555556,16.1266667 42.8733333,5.24444444 29.5,5.24444444 Z" id="Shape" fillOpacity="0.85" fill="#000000"></path>
                    <circle id="Oval" fill="#6DD400" cx="29.5" cy="29.5" r="13.1111111"></circle>
                </g>
            </g>
        </g>
    </g>
</svg>