<?xml version="1.0" encoding="UTF-8"?>
<svg width="46px" height="62px" viewBox="0 0 46 62" version="1.1" xmlns="http://www.w3.org/2000/svg" xmlns:xlink="http://www.w3.org/1999/xlink">
    <!-- Generator: Sketch 53.1 (72631) - https://sketchapp.com -->
    <title>noun_Save_2429268</title>
    <desc>Created with Sketch.</desc>
    <g id="Page-1" stroke="none" stroke-width="1" fill="none" fillRule="evenodd" fillOpacity="0.85">
        <g id="Artboard" transform="translate(-1414.000000, -320.000000)" fill="#000000">
            <g id="Group-6" transform="translate(1097.000000, 318.000000)">
                <g id="noun_Save_2429268" transform="translate(317.000000, 2.000000)">
                    <path d="M5.69199295,0.0476923077 L32.3930864,0.0476923077 L45.9610582,15.302764 L45.9610582,56.2647979 C45.9610582,59.374498 43.4006349,61.9256323 40.279612,61.9256323 L5.69199295,61.9256323 C2.57097002,61.9256323 0.0105467372,59.374498 0.0105467372,56.2647979 L0.0105467372,12.3676662 L3.3173545,12.3676662 L3.3173545,15.3787484 L5.11354497,15.3787484 L5.11354497,12.3676662 L7.00303351,12.3676662 L7.00303351,15.3787484 L8.7984127,15.3787484 L8.7984127,12.3676662 L10.6879012,12.3676662 L10.6879012,15.3787484 L12.4840917,15.3787484 L12.4840917,12.3676662 L14.3735802,12.3676662 L14.3735802,15.3787484 L18.0543915,15.3787484 L18.0543915,7.56852673 L14.3735802,7.56852673 L14.3735802,10.5788005 L12.4840917,10.5788005 L12.4840917,7.56852673 L10.6879012,7.56852673 L10.6879012,10.5788005 L8.7984127,10.5788005 L8.7984127,7.56852673 L7.00303351,7.56852673 L7.00303351,10.5788005 L5.11354497,10.5788005 L5.11354497,7.56852673 L3.3173545,7.56852673 L3.3173545,10.5788005 L0.0105467372,10.5788005 L0.0105467372,5.70933507 C0.0105467372,2.5988266 2.57097002,0.0476923077 5.69199295,0.0476923077 Z M24.9405996,32.8761669 L24.9405996,42.0880574 L27.8953086,39.1424511 L30.6609877,41.8980965 L22.9862081,49.5442243 L15.3106173,41.8980965 L18.0762963,39.1424511 L21.0310053,42.0880574 L21.0310053,32.8761669 L24.9405996,32.8761669 L24.9405996,32.8761669 Z M9.27707231,30.654837 L36.6945326,30.654837 C38.6984127,30.654837 40.3355908,32.2860756 40.3355908,34.2826858 L40.3355908,48.2815906 C40.3355908,50.2782008 38.6984127,51.9102477 36.6945326,51.9102477 L9.27707231,51.9102477 C7.27319224,51.9102477 5.63601411,50.2782008 5.63601411,48.2815906 L5.63601411,34.2826858 C5.63601411,32.2860756 7.27319224,30.654837 9.27707231,30.654837 Z M33.0161552,4.10719687 L33.0161552,14.6019296 L42.3508289,14.6019296 L33.0161552,4.10719687 Z" id="Shape"></path>
                </g>
            </g>
        </g>
    </g>
</svg>