<?xml version="1.0" encoding="UTF-8"?>
<svg width="44px" height="43px" viewBox="0 0 44 43" version="1.1" xmlns="http://www.w3.org/2000/svg" xmlns:xlink="http://www.w3.org/1999/xlink">
    <!-- Generator: Sketch 53.1 (72631) - https://sketchapp.com -->
    <title>noun_Share_267668</title>
    <desc>Created with Sketch.</desc>
    <g id="Page-1" stroke="none" stroke-width="1" fill="none" fillRule="evenodd">
        <g id="Artboard" transform="translate(-1414.000000, -540.000000)" fill="#000000" fillRule="nonzero">
            <g id="Group-5" transform="translate(1096.000000, 444.000000)">
                <g id="noun_Share_267668" transform="translate(318.000000, 96.000000)">
                    <path d="M39.1,18.45 C36.85,18.45 34.95,20.15 34.7,22.35 L26.25,22.35 C26.15,21 25.6,19.8 24.8,18.85 L26.3,17.35 C26.8,17.7 27.45,17.9 28.1,17.9 C29.85,17.9 31.25,16.5 31.25,14.75 C31.25,13 29.85,11.6 28.1,11.6 C26.35,11.6 24.95,13 24.95,14.75 C24.95,15.4 25.15,16.05 25.5,16.55 L24,18.05 C23.05,17.25 21.85,16.7 20.5,16.6 L20.5,7.05 C22.1,6.8 23.3,5.4 23.3,3.75 C23.3,1.9 21.8,0.4 19.95,0.4 C18.1,0.4 16.6,1.9 16.6,3.75 C16.6,5.4 17.8,6.8 19.4,7.05 L19.4,16.6 C18.05,16.7 16.85,17.25 15.9,18.05 L11.05,13.2 C11.9,12.15 12.45,10.8 12.45,9.35 C12.45,6.05 9.75,3.35 6.45,3.35 C3.15,3.35 0.45,6.05 0.45,9.35 C0.45,12.65 3.15,15.35 6.45,15.35 C7.9,15.35 9.25,14.85 10.3,13.95 L15.15,18.8 C14.35,19.75 13.8,20.95 13.7,22.3 L9.85,22.3 C9.6,20.65 8.15,19.4 6.45,19.4 C4.55,19.4 3,20.95 3,22.85 C3,24.75 4.55,26.3 6.45,26.3 C8.15,26.3 9.6,25.05 9.85,23.4 L13.7,23.4 C13.8,24.75 14.35,25.95 15.15,26.9 L7.9,34.25 C7.5,34 7,33.8 6.45,33.8 C5,33.8 3.8,35 3.8,36.45 C3.8,37.9 5,39.1 6.45,39.1 C7.9,39.1 9.1,37.9 9.1,36.45 C9.1,35.9 8.95,35.45 8.65,35 L15.95,27.7 C16.9,28.5 18.1,29.05 19.45,29.15 L19.45,33.5 C17.2,33.75 15.45,35.7 15.45,38 C15.45,40.5 17.5,42.55 20,42.55 C22.5,42.55 24.55,40.5 24.55,38 C24.55,35.7 22.8,33.75 20.55,33.5 L20.55,29.15 C21.9,29.05 23.1,28.5 24.05,27.7 L28.35,32 C27.85,32.7 27.5,33.5 27.5,34.45 C27.5,36.7 29.3,38.5 31.55,38.5 C33.8,38.5 35.6,36.7 35.6,34.45 C35.6,32.2 33.8,30.4 31.55,30.4 C30.65,30.4 29.8,30.7 29.1,31.25 L24.8,26.95 C25.6,26 26.15,24.8 26.25,23.45 L34.7,23.45 C34.95,25.65 36.85,27.35 39.1,27.35 C41.55,27.35 43.55,25.35 43.55,22.9 C43.55,20.45 41.55,18.45 39.1,18.45 Z M39.1,26.25 C37.25,26.25 35.75,24.75 35.75,22.9 C35.75,21.05 37.25,19.55 39.1,19.55 C40.95,19.55 42.45,21.05 42.45,22.9 C42.45,24.75 40.95,26.25 39.1,26.25 Z M25.2,22.9 C25.2,25.75 22.85,28.1 20,28.1 C17.15,28.1 14.8,25.75 14.8,22.9 C14.8,20.05 17.15,17.7 20,17.7 C22.85,17.7 25.2,20.05 25.2,22.9 Z M26.05,14.75 C26.05,13.6 26.95,12.7 28.1,12.7 C29.25,12.7 30.15,13.6 30.15,14.75 C30.15,15.9 29.25,16.8 28.1,16.8 C27,16.8 26.05,15.9 26.05,14.75 Z M20,1.5 C21.25,1.5 22.25,2.5 22.25,3.75 C22.25,5 21.2,6 20,6 C18.75,6 17.75,5 17.75,3.75 C17.75,2.5 18.75,1.5 20,1.5 Z M1.55,9.35 C1.55,6.65 3.75,4.45 6.45,4.45 C9.15,4.45 11.35,6.65 11.35,9.35 C11.35,12.05 9.15,14.25 6.45,14.25 C3.75,14.25 1.55,12.05 1.55,9.35 Z M8.8,22.9 C8.8,24.2 7.75,25.25 6.45,25.25 C5.15,25.25 4.1,24.2 4.1,22.9 C4.1,21.6 5.15,20.55 6.45,20.55 C7.75,20.55 8.8,21.6 8.8,22.9 Z M8,36.45 C8,37.3 7.3,38 6.45,38 C5.6,38 4.9,37.3 4.9,36.45 C4.9,35.6 5.6,34.9 6.45,34.9 C7.3,34.9 8,35.6 8,36.45 Z M20,41.5 C18.1,41.5 16.55,39.95 16.55,38.05 C16.55,36.15 18.1,34.6 20,34.6 C21.9,34.6 23.45,36.15 23.45,38.05 C23.45,39.95 21.9,41.5 20,41.5 Z M28.6,34.45 C28.6,32.85 29.9,31.5 31.55,31.5 C33.15,31.5 34.5,32.8 34.5,34.45 C34.5,36.05 33.2,37.4 31.55,37.4 C29.9,37.4 28.6,36.05 28.6,34.45 Z" id="Shape"></path>
                </g>
            </g>
        </g>
    </g>
</svg>