<?xml version="1.0" encoding="UTF-8"?>
<svg width="62px" height="62px" viewBox="0 0 62 62" version="1.1" xmlns="http://www.w3.org/2000/svg" xmlns:xlink="http://www.w3.org/1999/xlink">
    <!-- Generator: Sketch 53.1 (72631) - https://sketchapp.com -->
    <title>noun_Stop_3717824</title>
    <desc>Created with Sketch.</desc>
    <g id="Page-1" stroke="none" stroke-width="1" fill="none" fillRule="evenodd">
        <g id="Artboard" transform="translate(-1205.000000, -320.000000)" fillRule="nonzero">
            <g id="Group-6" transform="translate(1097.000000, 318.000000)">
                <g id="noun_Stop_3717824" transform="translate(108.000000, 2.000000)">
                    <path d="M7.75,54.249054 L54.25,54.249054 L54.25,7.74905398 L7.75,7.74905398 L7.75,54.249054 Z M19.7981974,21.0882873 C19.7981974,20.3743387 20.3765462,19.7966207 21.0898641,19.7966207 L40.9101359,19.7966207 C41.6234538,19.7966207 42.2018026,20.3743387 42.2018026,21.0882873 L42.2018026,40.9085592 C42.2018026,41.6225078 41.6234538,42.2002259 40.9101359,42.2002259 L21.0898641,42.2002259 C20.3765462,42.2002259 19.7981974,41.6225078 19.7981974,40.9085592 L19.7981974,21.0882873 Z" id="Shape" fill="#FF5D5D"></path>
                    <path d="M56.8333333,0 L5.16666667,0 C2.31205492,0 0,2.31205492 0,5.16666667 L0,56.8333333 C0,59.674937 2.31205492,62 5.16666667,62 L56.8333333,62 C59.6879451,62 62,59.674937 62,56.8333333 L62,5.16666667 C62,2.31205492 59.6879451,0 56.8333333,0 Z M56.8333333,55.5407206 C56.8333333,56.2546692 56.2549845,56.8323873 55.5416667,56.8323873 L6.45833333,56.8323873 C5.74501545,56.8323873 5.16666667,56.2546692 5.16666667,55.5407206 L5.16666667,6.45738732 C5.16666667,5.74343872 5.74501545,5.16572065 6.45833333,5.16572065 L55.5416667,5.16572065 C56.2549845,5.16572065 56.8333333,5.74343872 56.8333333,6.45738732 L56.8333333,55.5407206 Z" id="Shape" fillOpacity="0.85" fill="#000000"></path>
                </g>
            </g>
        </g>
    </g>
</svg>