<?xml version="1.0" encoding="UTF-8" standalone="no"?>
<svg
   xmlns:dc="http://purl.org/dc/elements/1.1/"
   xmlns:cc="http://creativecommons.org/ns#"
   xmlns:rdf="http://www.w3.org/1999/02/22-rdf-syntax-ns#"
   xmlns:svg="http://www.w3.org/2000/svg"
   xmlns="http://www.w3.org/2000/svg"
   xmlns:sodipodi="http://sodipodi.sourceforge.net/DTD/sodipodi-0.dtd"
   xmlns:inkscape="http://www.inkscape.org/namespaces/inkscape"
   version="1.1"
   id="Layer_1"
   x="0px"
   y="0px"
   width="1200px"
   height="1200px"
   viewBox="0 0 1200 1200"
   style="enable-background:new 0 0 1200 1200;"
   xml:space="preserve"
   sodipodi:docname="girl.svg"
   inkscape:version="1.0.1 (0767f8302a, 2020-10-17)"><metadata
   id="metadata1749"><rdf:RDF><cc:Work
       rdf:about=""><dc:format>image/svg+xml</dc:format><dc:type
         rdf:resource="http://purl.org/dc/dcmitype/StillImage" /></cc:Work></rdf:RDF></metadata><defs
   id="defs1747"><rect
     x="580.39675"
     y="389.62976"
     width="90.849737"
     height="62.386893"
     id="rect116" /></defs><sodipodi:namedview
   pagecolor="#ffffff"
   bordercolor="#666666"
   borderopacity="1"
   objecttolerance="10"
   gridtolerance="10"
   guidetolerance="10"
   inkscape:pageopacity="0"
   inkscape:pageshadow="2"
   inkscape:window-width="1293"
   inkscape:window-height="713"
   id="namedview1745"
   showgrid="false"
   inkscape:zoom="2.5361563"
   inkscape:cx="567.10673"
   inkscape:cy="394.12466"
   inkscape:window-x="67"
   inkscape:window-y="27"
   inkscape:window-maximized="1"
   inkscape:current-layer="Layer_1"
   inkscape:document-rotation="0" />
<g
   id="illustration_1_"
   style="display:inline;opacity:1"
   transform="translate(0,-6.8044711)">
	
	
	
	
	
	
	
	
	
	
	<path
   style="display:inline;fill:#bf4c68"
   d="m 501.5,564.2 c -1.3,-73.2 11.7,-128.9 32.3,-167.4 12.6,-23.6 28,-40.7 44.8,-51.6 14.7,-9.5 30.5,-14.1 46.2,-13.9 15.6,0.2 31.3,5.2 45.9,14.8 16.5,10.9 31.8,27.8 44.3,50.7 21.3,38.8 34.7,94.8 33.1,167.4 z"
   id="path1508" /><rect
   style="display:inline;opacity:1;fill:#e6e6e6"
   id="rect117-3"
   width="169.32715"
   height="45.624466"
   x="245.74785"
   y="327.82257" />
	<line
   style="display:inline;fill:none"
   x1="741.40002"
   y1="564.79999"
   x2="508.60001"
   y2="564.79999"
   id="line1510" />
	<ellipse
   style="display:inline;fill:#ffffff"
   cx="625.40002"
   cy="351.29999"
   rx="22"
   ry="16.299999"
   id="ellipse1512" />
	<path
   style="display:inline;fill:#f3af9d"
   d="M 616.2,277.5"
   id="path1514" />
	
	
	
	
	
	
	
	
	
	
	<path
   style="fill:#e094a3"
   d="m 410.4,322.3 3,56.8 c 58.9,0.3 93.5,-2.3 119.3,17.7 l 48.7,-50.2 c -54.3,-26.7 -115,-27.7 -171,-24.3 z"
   id="path1604" />
	<path
   style="display:inline;fill:#e094a3"
   d="m 670.3,345.6 43.3,53.2 c 27,-16.2 67.7,-16.3 126.6,-16.7 v -56.8 c -56,-3.4 -99.2,-10.4 -169.9,20.3 z"
   id="path1606" />
	
	
	
	
<rect
   style="fill:#e6e6e6"
   id="rect134"
   width="122.9615"
   height="3.8648274"
   x="563.85431"
   y="397.81006" /><rect
   style="fill:#e6e6e6"
   id="rect136"
   width="122.90685"
   height="2.057869"
   x="564.1001"
   y="404.62653" /><rect
   style="fill:#e6e6e6"
   id="rect117"
   width="169.32715"
   height="45.624466"
   x="840.20001"
   y="325.29999" /></g>
<g
   id="skeleton_1_">
	<polygon
   style="fill:none;stroke:#000000;stroke-miterlimit:10"
   points="685.5,564.5 731.7,349.5 518.8,349.5 569.1,565.3 "
   id="polygon1628" />
	<polyline
   style="fill:none;stroke:#000000;stroke-miterlimit:10"
   points="517.8,349.5 415.1,349.5 251.8,355.8  "
   id="polyline1630" />
	<polyline
   style="fill:none;stroke:#000000;stroke-miterlimit:10"
   points="733.2,349.1 836.4,349.1 999.7,355.5  "
   id="polyline1632" />
	<polyline
   style="fill:none;stroke:#000000;stroke-miterlimit:10"
   points="569.1,565.3 575.5,725.5 575.5,933.5  "
   id="polyline1634" />
	<polyline
   style="fill:none;stroke:#000000;stroke-miterlimit:10"
   points="685.5,564.5 685.5,725.5 685.5,933.5  "
   id="polyline1636" />
	<polyline
   style="fill:none;stroke:#000000;stroke-miterlimit:10"
   points="624.5,170 604.7,172.5 592.2,182 583.6,196.1    581.1,205.4 580.3,217.1 580.3,226.6 581.1,248.3 587.9,268.3 599.5,280.8 609.5,287.5 624.5,290.7 639.3,287.9 649.3,281.2    660.9,268.6 667.7,248.6 668.5,227 668.5,217.4 667.7,205.7 665.2,196.5 657,182 644.4,172.5 624.5,170  "
   id="polyline1638" />
	<polyline
   style="fill:none;stroke:#000000;stroke-miterlimit:10"
   points="588.5,206.9 592.5,203.2 598.7,202.2 606,202.2    615.8,206.2  "
   id="polyline1640" />
	<polygon
   style="fill:none;stroke:#000000;stroke-miterlimit:10"
   points="606.2,211.4 611.4,215.6 606.2,216.6 599.9,217.4 594.7,215.1 599.9,211.4 "
   id="polygon1642" />
	<polyline
   style="fill:none;stroke:#000000;stroke-miterlimit:10"
   points="613,233.2 618.2,233.2 623.7,234 623.7,228.7    623.7,221.6 623.7,216.1 623.7,210.3  "
   id="polyline1644" />
	<polyline
   style="fill:none;stroke:#000000;stroke-miterlimit:10"
   points="660,206.5 656,203.6 649.7,202.1 642.4,202.5    632.4,205.7  "
   id="polyline1646" />
	<polygon
   style="fill:none;stroke:#000000;stroke-miterlimit:10"
   points="642.5,211.4 637.4,215.6 642.5,216.6 648.8,217.4 654.1,215.1 648.8,211.4 "
   id="polygon1648" />
	<polyline
   style="fill:none;stroke:#000000;stroke-miterlimit:10"
   points="634.1,233.2 629.1,233.2 623.7,234  "
   id="polyline1650" />
	<polygon
   style="fill:none;stroke:#000000;stroke-miterlimit:10"
   points="620.4,250.8 624.5,251.7 628.7,250.8 635.1,251.9 642,255.3 635.6,261.6 628.5,264.4 624.5,264.9 620.4,264.4 613.4,261.6 607,255.3 613.9,251.9 "
   id="polygon1652" />
	<polyline
   style="fill:none;stroke:#000000;stroke-miterlimit:10"
   points="607,255.3 610.6,255.6 620.6,254.8 624.5,255.3    628.5,254.8 638.4,255.6 642,255.3  "
   id="polyline1654" />
	<polyline
   style="fill:none;stroke:#000000;stroke-miterlimit:10"
   points="607,255.3 610.6,255.6 620.6,257.7 624.5,258.5    628.5,257.7 638.4,255.6 642,255.3  "
   id="polyline1656" />
	<circle
   id="rightShoulder"
   cx="518.90002"
   cy="349.20001"
   r="8.1999998" />
	<circle
   id="rightElbow"
   cx="415.39999"
   cy="349.29999"
   r="8.1999998" />
	<circle
   id="rightWrist"
   cx="252"
   cy="355.70001"
   r="8.1999998" />
	<circle
   id="rightHip"
   cx="569.20001"
   cy="565"
   r="8.1999998" />
	<circle
   id="rightKnee"
   cx="575.59998"
   cy="725.20001"
   r="8.1999998" />
	<circle
   id="rightAnkle"
   cx="575.59998"
   cy="933.20001"
   r="8.1999998" />
	<circle
   id="leftElbow"
   cx="836.20001"
   cy="348.89999"
   r="8.1999998" />
	<circle
   id="leftWrist"
   cx="999.59998"
   cy="355.20001"
   r="8.1999998" />
	<circle
   id="leftHip"
   cx="685.59998"
   cy="564.20001"
   r="8.1999998" />
	<circle
   id="leftKnee"
   cx="685.59998"
   cy="725.20001"
   r="8.1999998" />
	<circle
   id="leftAnkle"
   cx="685.59998"
   cy="933.20001"
   r="8.1999998" />
	<circle
   id="rightEye0"
   cx="594.70001"
   cy="215.10001"
   r="0.80000001" />
	<circle
   id="rightBrow1"
   cx="592.5"
   cy="203.2"
   r="0.80000001" />
	<circle
   id="rightBrow4"
   cx="615.79999"
   cy="206.2"
   r="0.80000001" />
	<circle
   id="nose1"
   cx="623.70001"
   cy="216.10001"
   r="0.80000001" />
	<circle
   id="rightBrow3"
   cx="606"
   cy="202.2"
   r="0.80000001" />
	<circle
   id="rightEye1"
   cx="599.90002"
   cy="211.39999"
   r="0.80000001" />
	<circle
   id="rightBrow0"
   cx="588.5"
   cy="206.89999"
   r="0.80000001" />
	<circle
   id="rightBrow2"
   cx="598.70001"
   cy="202.2"
   r="0.80000001" />
	<circle
   id="rightEye5"
   cx="599.90002"
   cy="217.39999"
   r="0.80000001" />
	<circle
   id="rightEye2"
   cx="606.20001"
   cy="211.39999"
   r="0.80000001" />
	<circle
   id="rightEye3"
   cx="611.40002"
   cy="215.60001"
   r="0.80000001" />
	<circle
   id="nose0"
   cx="623.70001"
   cy="210.3"
   r="0.80000001" />
	<circle
   id="nose3"
   cx="623.70001"
   cy="228.7"
   r="0.80000001" />
	<circle
   id="rightNose0"
   cx="613"
   cy="233.2"
   r="0.80000001" />
	<circle
   id="rightMouthCorner"
   cx="607"
   cy="255.3"
   r="0.80000001" />
	<circle
   id="rightNose1"
   cx="618.20001"
   cy="233.2"
   r="0.80000001" />
	<circle
   id="rightUpperLipTop0"
   cx="613.90002"
   cy="251.89999"
   r="0.80000001" />
	<circle
   id="nose2"
   cx="623.70001"
   cy="221.60001"
   r="0.80000001" />
	<circle
   id="nose4"
   cx="623.70001"
   cy="234"
   r="0.80000001" />
	<circle
   id="upperLipTopMid"
   cx="624.5"
   cy="251.7"
   r="0.80000001" />
	<circle
   id="rightUpperLipTop1"
   cx="620.40002"
   cy="250.8"
   r="0.80000001" />
	<path
   id="rightMiddleLip"
   d="m 610.6,254.8 c 0.4,0 0.8,0.4 0.8,0.8 0,0.4 -0.4,0.8 -0.8,0.8 -0.4,0 -0.8,-0.4 -0.8,-0.8 0,-0.4 0.4,-0.8 0.8,-0.8 z" />
	<circle
   id="lowerLipBottomMid"
   cx="624.5"
   cy="264.89999"
   r="0.80000001"
   style="display:inline" />
	<circle
   id="upperLipBottomMid"
   cx="624.5"
   cy="255.3"
   r="0.80000001"
   style="display:inline" />
	<circle
   id="lowerLipTopMid"
   cx="624.5"
   cy="258.39999"
   r="0.80000001"
   style="display:inline" />
	<circle
   id="rightUpperLipBottom1"
   cx="620.59998"
   cy="254.8"
   r="0.80000001" />
	<circle
   id="rightLowerLipTop0"
   cx="620.59998"
   cy="257.70001"
   r="0.80000001" />
	<circle
   id="rightLowerLipBottom1"
   cx="620.40002"
   cy="264.39999"
   r="0.80000001"
   style="display:inline" />
	<circle
   id="rightLowerLipBottom0"
   cx="613.40002"
   cy="261.60001"
   r="0.80000001" />
	<circle
   id="rightEye4"
   cx="606.20001"
   cy="216.60001"
   r="0.80000001" />
	<circle
   id="jawMid"
   cx="624.5"
   cy="290.70001"
   r="0.80000001" />
	<circle
   id="rightJaw7"
   cx="609.5"
   cy="287.5"
   r="0.80000001" />
	<circle
   id="rightJaw6"
   cx="599.5"
   cy="280.79999"
   r="0.80000001" />
	<circle
   id="rightJaw5"
   cx="587.90002"
   cy="268.29999"
   r="0.80000001" />
	<circle
   id="rightJaw4"
   cx="581.09998"
   cy="248.3"
   r="0.80000001" />
	<circle
   id="rightJaw3"
   cx="580.29999"
   cy="226.60001"
   r="0.80000001" />
	<circle
   id="rightJaw2"
   cx="580.29999"
   cy="217.10001"
   r="0.80000001" />
	<circle
   id="rightJaw1"
   cx="581.09998"
   cy="205.39999"
   r="0.80000001" />
	<circle
   id="rightJaw0"
   cx="583.59998"
   cy="196.10001"
   r="0.80000001" />
	<circle
   id="topMid"
   cx="624.70001"
   cy="170"
   r="0.80000001" />
	<circle
   id="leftTop0"
   cx="644.40002"
   cy="172.5"
   r="0.80000001" />
	<circle
   id="leftTop1"
   cx="657"
   cy="182"
   r="0.80000001" />
	<circle
   id="leftEye0"
   cx="654.29999"
   cy="215.10001"
   r="0.80000001" />
	<circle
   id="leftBrow1"
   cx="656.20001"
   cy="203.60001"
   r="0.80000001" />
	<circle
   id="leftBrow4"
   cx="632.59998"
   cy="205.7"
   r="0.80000001" />
	<circle
   id="leftBrow3"
   cx="642.59998"
   cy="202.5"
   r="0.80000001" />
	<circle
   id="leftEye1"
   cx="649.09998"
   cy="211.39999"
   r="0.80000001" />
	<circle
   id="leftBrow0"
   cx="660.20001"
   cy="206.5"
   r="0.80000001" />
	<circle
   id="leftBrow2"
   cx="649.90002"
   cy="202.10001"
   r="0.80000001" />
	<circle
   id="leftEye5"
   cx="649.09998"
   cy="217.39999"
   r="0.80000001" />
	<circle
   id="leftEye2"
   cx="642.79999"
   cy="211.39999"
   r="0.80000001" />
	<circle
   id="leftEye3"
   cx="637.59998"
   cy="215.60001"
   r="0.80000001" />
	<circle
   id="leftNose0"
   cx="634.09998"
   cy="233.2"
   r="0.80000001" />
	<circle
   id="leftMouthCorner"
   cx="642"
   cy="255.3"
   r="0.80000001"
   style="display:inline" />
	<circle
   id="leftNose1"
   cx="629.29999"
   cy="233.2"
   r="0.80000001" />
	<circle
   id="leftUpperLipTop0"
   cx="635.09998"
   cy="251.89999"
   r="0.80000001" />
	<circle
   id="leftUpperLipTop1"
   cx="628.70001"
   cy="250.8"
   r="0.80000001" />
	<path
   id="leftMiddleLip"
   d="m 638.4,254.8 c 0.4,0 0.8,0.4 0.8,0.8 0,0.4 -0.4,0.8 -0.8,0.8 -0.4,0 -0.8,-0.4 -0.8,-0.8 0,-0.4 0.4,-0.8 0.8,-0.8 z"
   style="display:inline" />
	<circle
   id="leftUpperLipBottom1"
   cx="628.5"
   cy="254.8"
   r="0.80000001" />
	<circle
   id="leftLowerLipTop0"
   cx="628.5"
   cy="257.70001"
   r="0.80000001"
   style="display:inline" />
	<circle
   id="leftLowerLipBottom1"
   cx="628.70001"
   cy="264.39999"
   r="0.80000001"
   style="display:inline" />
	<circle
   id="leftLowerLipBottom0"
   cx="635.59998"
   cy="261.60001"
   r="0.80000001" />
	<circle
   id="leftEye4"
   cx="642.79999"
   cy="216.60001"
   r="0.80000001" />
	<circle
   id="leftJaw7"
   cx="639.29999"
   cy="287.89999"
   r="0.80000001" />
	<circle
   id="leftJaw6"
   cx="649.29999"
   cy="281.20001"
   r="0.80000001" />
	<circle
   id="leftJaw5"
   cx="660.90002"
   cy="268.60001"
   r="0.80000001" />
	<circle
   id="leftJaw4"
   cx="667.70001"
   cy="248.60001"
   r="0.80000001"
   style="display:inline" />
	<circle
   id="leftJaw3"
   cx="668.5"
   cy="227"
   r="0.80000001" />
	<circle
   id="leftJaw2"
   cx="668.5"
   cy="217.39999"
   r="0.80000001" />
	<circle
   id="leftJaw1"
   cx="667.70001"
   cy="205.7"
   r="0.80000001" />
	<circle
   id="leftJaw0"
   cx="665.20001"
   cy="196.5"
   r="0.80000001" />
	<circle
   id="rightTop0"
   cx="604.79999"
   cy="172.5"
   r="0.80000001" />
	<circle
   id="rightTop1"
   cx="592.20001"
   cy="182"
   r="0.80000001" />
	<circle
   id="leftShoulder"
   cx="731.79999"
   cy="349.20001"
   r="8.1999998" />
</g>
</svg>
